<mxfile host="app.diagrams.net" modified="2023-09-26T15:12:11.891Z" agent="Mozilla/5.0 (Windows NT 10.0; Win64; x64) AppleWebKit/537.36 (KHTML, like Gecko) Chrome/117.0.0.0 Safari/537.36" etag="M-ldLtV6lzZ4BIxy3FWd" version="21.7.5" type="device">
  <diagram name="Puslapis-1" id="m5UZmGKEjFJvJKyYPvAq">
    <mxGraphModel dx="2049" dy="2252" grid="1" gridSize="10" guides="1" tooltips="1" connect="1" arrows="1" fold="1" page="1" pageScale="1" pageWidth="827" pageHeight="1169" math="0" shadow="0">
      <root>
        <mxCell id="0" />
        <mxCell id="1" parent="0" />
        <mxCell id="rnycu2j4dem3GArB-Dyt-1" value="Klientas" style="shape=umlActor;verticalLabelPosition=bottom;verticalAlign=top;html=1;outlineConnect=0;" parent="1" vertex="1">
          <mxGeometry x="40" y="320" width="30" height="60" as="geometry" />
        </mxCell>
        <mxCell id="rnycu2j4dem3GArB-Dyt-2" value="Vedėjas" style="shape=umlActor;verticalLabelPosition=bottom;verticalAlign=top;html=1;outlineConnect=0;" parent="1" vertex="1">
          <mxGeometry x="1030.88" y="220" width="30" height="60" as="geometry" />
        </mxCell>
        <mxCell id="rnycu2j4dem3GArB-Dyt-3" value="e-Bankas" style="shape=umlActor;verticalLabelPosition=bottom;verticalAlign=top;html=1;outlineConnect=0;" parent="1" vertex="1">
          <mxGeometry x="160" y="680" width="30" height="60" as="geometry" />
        </mxCell>
        <mxCell id="rnycu2j4dem3GArB-Dyt-4" value="Sisteminis&lt;br&gt;Programuotojas" style="shape=umlActor;verticalLabelPosition=bottom;verticalAlign=top;html=1;outlineConnect=0;" parent="1" vertex="1">
          <mxGeometry x="350" y="-20" width="30" height="60" as="geometry" />
        </mxCell>
        <mxCell id="rnycu2j4dem3GArB-Dyt-6" value="Sandėlininkas" style="shape=umlActor;verticalLabelPosition=bottom;verticalAlign=top;html=1;outlineConnect=0;" parent="1" vertex="1">
          <mxGeometry x="1030.88" y="400" width="30" height="60" as="geometry" />
        </mxCell>
        <mxCell id="rnycu2j4dem3GArB-Dyt-8" value="e-Parduotuvės&lt;br&gt;Finansininkas" style="shape=umlActor;verticalLabelPosition=bottom;verticalAlign=top;html=1;outlineConnect=0;" parent="1" vertex="1">
          <mxGeometry x="580" y="680" width="30" height="60" as="geometry" />
        </mxCell>
        <mxCell id="rnycu2j4dem3GArB-Dyt-9" value="Vairuotojas" style="shape=umlActor;verticalLabelPosition=bottom;verticalAlign=top;html=1;outlineConnect=0;" parent="1" vertex="1">
          <mxGeometry x="770" y="680" width="30" height="60" as="geometry" />
        </mxCell>
        <mxCell id="rnycu2j4dem3GArB-Dyt-13" value="Sodybos&lt;br&gt;Savininkas" style="shape=umlActor;verticalLabelPosition=bottom;verticalAlign=top;html=1;outlineConnect=0;" parent="1" vertex="1">
          <mxGeometry x="1030.88" y="-20" width="30" height="60" as="geometry" />
        </mxCell>
        <mxCell id="rnycu2j4dem3GArB-Dyt-15" value="Elektroninio katalogo&lt;br&gt;pateikimas" style="ellipse;whiteSpace=wrap;html=1;fillColor=#fff2cc;strokeColor=#d6b656;" parent="1" vertex="1">
          <mxGeometry x="40" y="50" width="120" height="80" as="geometry" />
        </mxCell>
        <mxCell id="rnycu2j4dem3GArB-Dyt-17" value="Specialistas" style="shape=umlActor;verticalLabelPosition=bottom;verticalAlign=top;html=1;outlineConnect=0;" parent="1" vertex="1">
          <mxGeometry x="530" y="-20" width="30" height="60" as="geometry" />
        </mxCell>
        <mxCell id="rnycu2j4dem3GArB-Dyt-21" value="Pateikia paslaugos&lt;br&gt;aprašą" style="ellipse;whiteSpace=wrap;html=1;fillColor=#fff2cc;strokeColor=#d6b656;" parent="1" vertex="1">
          <mxGeometry x="320" y="150" width="120" height="50" as="geometry" />
        </mxCell>
        <mxCell id="rnycu2j4dem3GArB-Dyt-23" value="" style="endArrow=none;html=1;rounded=0;exitX=1;exitY=0;exitDx=0;exitDy=0;" parent="1" source="rnycu2j4dem3GArB-Dyt-21" target="rnycu2j4dem3GArB-Dyt-17" edge="1">
          <mxGeometry width="50" height="50" relative="1" as="geometry">
            <mxPoint x="390" y="270" as="sourcePoint" />
            <mxPoint x="440" y="220" as="targetPoint" />
          </mxGeometry>
        </mxCell>
        <mxCell id="rnycu2j4dem3GArB-Dyt-26" value="registruoja" style="edgeLabel;html=1;align=center;verticalAlign=middle;resizable=0;points=[];" parent="rnycu2j4dem3GArB-Dyt-23" vertex="1" connectable="0">
          <mxGeometry x="-0.2389" y="-1" relative="1" as="geometry">
            <mxPoint as="offset" />
          </mxGeometry>
        </mxCell>
        <mxCell id="rnycu2j4dem3GArB-Dyt-121" value="1..*" style="edgeLabel;html=1;align=center;verticalAlign=middle;resizable=0;points=[];" parent="rnycu2j4dem3GArB-Dyt-23" vertex="1" connectable="0">
          <mxGeometry x="0.8732" y="1" relative="1" as="geometry">
            <mxPoint x="-13" y="-6" as="offset" />
          </mxGeometry>
        </mxCell>
        <mxCell id="rnycu2j4dem3GArB-Dyt-122" value="0..*" style="edgeLabel;html=1;align=center;verticalAlign=middle;resizable=0;points=[];" parent="rnycu2j4dem3GArB-Dyt-23" vertex="1" connectable="0">
          <mxGeometry x="-0.8484" relative="1" as="geometry">
            <mxPoint x="10" y="-2" as="offset" />
          </mxGeometry>
        </mxCell>
        <mxCell id="rnycu2j4dem3GArB-Dyt-24" value="" style="endArrow=none;html=1;rounded=0;exitX=1;exitY=0.5;exitDx=0;exitDy=0;entryX=0;entryY=1;entryDx=0;entryDy=0;" parent="1" source="rnycu2j4dem3GArB-Dyt-15" target="rnycu2j4dem3GArB-Dyt-21" edge="1">
          <mxGeometry width="50" height="50" relative="1" as="geometry">
            <mxPoint x="390" y="270" as="sourcePoint" />
            <mxPoint x="440" y="220" as="targetPoint" />
          </mxGeometry>
        </mxCell>
        <mxCell id="rnycu2j4dem3GArB-Dyt-25" value="" style="endArrow=none;html=1;rounded=0;exitX=0.747;exitY=0.083;exitDx=0;exitDy=0;exitPerimeter=0;" parent="1" source="rnycu2j4dem3GArB-Dyt-15" target="rnycu2j4dem3GArB-Dyt-4" edge="1">
          <mxGeometry width="50" height="50" relative="1" as="geometry">
            <mxPoint x="390" y="270" as="sourcePoint" />
            <mxPoint x="440" y="220" as="targetPoint" />
          </mxGeometry>
        </mxCell>
        <mxCell id="rnycu2j4dem3GArB-Dyt-27" value="sukuria-atnaujina" style="edgeLabel;html=1;align=center;verticalAlign=middle;resizable=0;points=[];" parent="rnycu2j4dem3GArB-Dyt-25" vertex="1" connectable="0">
          <mxGeometry x="-0.1115" y="1" relative="1" as="geometry">
            <mxPoint as="offset" />
          </mxGeometry>
        </mxCell>
        <mxCell id="rnycu2j4dem3GArB-Dyt-125" value="1..*" style="edgeLabel;html=1;align=center;verticalAlign=middle;resizable=0;points=[];" parent="rnycu2j4dem3GArB-Dyt-25" vertex="1" connectable="0">
          <mxGeometry x="0.7868" y="1" relative="1" as="geometry">
            <mxPoint x="-10" y="-4" as="offset" />
          </mxGeometry>
        </mxCell>
        <mxCell id="rnycu2j4dem3GArB-Dyt-126" value="1" style="edgeLabel;html=1;align=center;verticalAlign=middle;resizable=0;points=[];" parent="rnycu2j4dem3GArB-Dyt-25" vertex="1" connectable="0">
          <mxGeometry x="-0.8123" relative="1" as="geometry">
            <mxPoint as="offset" />
          </mxGeometry>
        </mxCell>
        <mxCell id="rnycu2j4dem3GArB-Dyt-28" value="" style="endArrow=none;html=1;rounded=0;entryX=0.185;entryY=0.91;entryDx=0;entryDy=0;entryPerimeter=0;" parent="1" source="rnycu2j4dem3GArB-Dyt-1" target="rnycu2j4dem3GArB-Dyt-15" edge="1">
          <mxGeometry width="50" height="50" relative="1" as="geometry">
            <mxPoint x="290" y="240" as="sourcePoint" />
            <mxPoint x="340" y="190" as="targetPoint" />
          </mxGeometry>
        </mxCell>
        <mxCell id="rnycu2j4dem3GArB-Dyt-29" value="peržiūri" style="edgeLabel;html=1;align=center;verticalAlign=middle;resizable=0;points=[];" parent="rnycu2j4dem3GArB-Dyt-28" vertex="1" connectable="0">
          <mxGeometry x="0.1402" y="-2" relative="1" as="geometry">
            <mxPoint as="offset" />
          </mxGeometry>
        </mxCell>
        <mxCell id="rnycu2j4dem3GArB-Dyt-119" value="0..*" style="edgeLabel;html=1;align=center;verticalAlign=middle;resizable=0;points=[];" parent="rnycu2j4dem3GArB-Dyt-28" vertex="1" connectable="0">
          <mxGeometry x="-0.8336" relative="1" as="geometry">
            <mxPoint as="offset" />
          </mxGeometry>
        </mxCell>
        <mxCell id="rnycu2j4dem3GArB-Dyt-120" value="1" style="edgeLabel;html=1;align=center;verticalAlign=middle;resizable=0;points=[];" parent="rnycu2j4dem3GArB-Dyt-28" vertex="1" connectable="0">
          <mxGeometry x="0.8779" y="2" relative="1" as="geometry">
            <mxPoint as="offset" />
          </mxGeometry>
        </mxCell>
        <mxCell id="rnycu2j4dem3GArB-Dyt-30" value="Kliento registracija" style="ellipse;whiteSpace=wrap;html=1;fillColor=#fff2cc;strokeColor=#d6b656;" parent="1" vertex="1">
          <mxGeometry x="90" y="220" width="120" height="40" as="geometry" />
        </mxCell>
        <mxCell id="rnycu2j4dem3GArB-Dyt-31" value="" style="endArrow=none;html=1;rounded=0;entryX=0.38;entryY=0.987;entryDx=0;entryDy=0;entryPerimeter=0;" parent="1" source="rnycu2j4dem3GArB-Dyt-1" target="rnycu2j4dem3GArB-Dyt-30" edge="1">
          <mxGeometry width="50" height="50" relative="1" as="geometry">
            <mxPoint x="80" y="240" as="sourcePoint" />
            <mxPoint x="130" y="190" as="targetPoint" />
          </mxGeometry>
        </mxCell>
        <mxCell id="rnycu2j4dem3GArB-Dyt-32" value="registruojasi" style="edgeLabel;html=1;align=center;verticalAlign=middle;resizable=0;points=[];" parent="rnycu2j4dem3GArB-Dyt-31" vertex="1" connectable="0">
          <mxGeometry x="-0.0676" y="1" relative="1" as="geometry">
            <mxPoint as="offset" />
          </mxGeometry>
        </mxCell>
        <mxCell id="rnycu2j4dem3GArB-Dyt-117" value="0..*" style="edgeLabel;html=1;align=center;verticalAlign=middle;resizable=0;points=[];" parent="rnycu2j4dem3GArB-Dyt-31" vertex="1" connectable="0">
          <mxGeometry x="-0.856" relative="1" as="geometry">
            <mxPoint as="offset" />
          </mxGeometry>
        </mxCell>
        <mxCell id="rnycu2j4dem3GArB-Dyt-118" value="1" style="edgeLabel;html=1;align=center;verticalAlign=middle;resizable=0;points=[];" parent="rnycu2j4dem3GArB-Dyt-31" vertex="1" connectable="0">
          <mxGeometry x="0.8815" y="-1" relative="1" as="geometry">
            <mxPoint as="offset" />
          </mxGeometry>
        </mxCell>
        <mxCell id="rnycu2j4dem3GArB-Dyt-33" value="" style="endArrow=none;html=1;rounded=0;exitX=0.721;exitY=0.035;exitDx=0;exitDy=0;exitPerimeter=0;" parent="1" source="rnycu2j4dem3GArB-Dyt-30" target="rnycu2j4dem3GArB-Dyt-4" edge="1">
          <mxGeometry width="50" height="50" relative="1" as="geometry">
            <mxPoint x="80" y="190" as="sourcePoint" />
            <mxPoint x="130" y="140" as="targetPoint" />
          </mxGeometry>
        </mxCell>
        <mxCell id="rnycu2j4dem3GArB-Dyt-34" value="patvirtina" style="edgeLabel;html=1;align=center;verticalAlign=middle;resizable=0;points=[];" parent="rnycu2j4dem3GArB-Dyt-33" vertex="1" connectable="0">
          <mxGeometry x="-0.3829" y="1" relative="1" as="geometry">
            <mxPoint x="47" y="-42" as="offset" />
          </mxGeometry>
        </mxCell>
        <mxCell id="rnycu2j4dem3GArB-Dyt-123" value="1..*" style="edgeLabel;html=1;align=center;verticalAlign=middle;resizable=0;points=[];" parent="rnycu2j4dem3GArB-Dyt-33" vertex="1" connectable="0">
          <mxGeometry x="0.9101" y="1" relative="1" as="geometry">
            <mxPoint x="-10" y="2" as="offset" />
          </mxGeometry>
        </mxCell>
        <mxCell id="rnycu2j4dem3GArB-Dyt-124" value="0..*" style="edgeLabel;html=1;align=center;verticalAlign=middle;resizable=0;points=[];" parent="rnycu2j4dem3GArB-Dyt-33" vertex="1" connectable="0">
          <mxGeometry x="-0.8715" y="1" relative="1" as="geometry">
            <mxPoint x="9" y="1" as="offset" />
          </mxGeometry>
        </mxCell>
        <mxCell id="rnycu2j4dem3GArB-Dyt-36" value="Šventės užsakymo formavimas ir pateikimas" style="ellipse;whiteSpace=wrap;html=1;fillColor=#fff2cc;strokeColor=#d6b656;" parent="1" vertex="1">
          <mxGeometry x="360" y="330" width="125" height="80" as="geometry" />
        </mxCell>
        <mxCell id="rnycu2j4dem3GArB-Dyt-38" value="Prisijungimas" style="ellipse;whiteSpace=wrap;html=1;fillColor=#fff2cc;strokeColor=#d6b656;" parent="1" vertex="1">
          <mxGeometry x="180" y="350" width="90" height="40" as="geometry" />
        </mxCell>
        <mxCell id="rnycu2j4dem3GArB-Dyt-39" value="" style="endArrow=none;html=1;rounded=0;entryX=0;entryY=0.5;entryDx=0;entryDy=0;" parent="1" source="rnycu2j4dem3GArB-Dyt-1" target="rnycu2j4dem3GArB-Dyt-38" edge="1">
          <mxGeometry width="50" height="50" relative="1" as="geometry">
            <mxPoint x="330" y="380" as="sourcePoint" />
            <mxPoint x="380" y="330" as="targetPoint" />
          </mxGeometry>
        </mxCell>
        <mxCell id="rnycu2j4dem3GArB-Dyt-41" value="prisijungia" style="edgeLabel;html=1;align=center;verticalAlign=middle;resizable=0;points=[];" parent="rnycu2j4dem3GArB-Dyt-39" vertex="1" connectable="0">
          <mxGeometry x="0.0691" y="3" relative="1" as="geometry">
            <mxPoint as="offset" />
          </mxGeometry>
        </mxCell>
        <mxCell id="rnycu2j4dem3GArB-Dyt-127" value="1" style="edgeLabel;html=1;align=center;verticalAlign=middle;resizable=0;points=[];" parent="rnycu2j4dem3GArB-Dyt-39" vertex="1" connectable="0">
          <mxGeometry x="-0.8576" y="2" relative="1" as="geometry">
            <mxPoint as="offset" />
          </mxGeometry>
        </mxCell>
        <mxCell id="rnycu2j4dem3GArB-Dyt-128" value="1" style="edgeLabel;html=1;align=center;verticalAlign=middle;resizable=0;points=[];" parent="rnycu2j4dem3GArB-Dyt-39" vertex="1" connectable="0">
          <mxGeometry x="0.8289" y="1" relative="1" as="geometry">
            <mxPoint as="offset" />
          </mxGeometry>
        </mxCell>
        <mxCell id="rnycu2j4dem3GArB-Dyt-40" value="" style="endArrow=none;html=1;rounded=0;entryX=0;entryY=0.5;entryDx=0;entryDy=0;exitX=1;exitY=0.5;exitDx=0;exitDy=0;" parent="1" source="rnycu2j4dem3GArB-Dyt-38" target="rnycu2j4dem3GArB-Dyt-36" edge="1">
          <mxGeometry width="50" height="50" relative="1" as="geometry">
            <mxPoint x="230" y="388" as="sourcePoint" />
            <mxPoint x="313" y="410" as="targetPoint" />
          </mxGeometry>
        </mxCell>
        <mxCell id="rnycu2j4dem3GArB-Dyt-44" value="užsako" style="edgeLabel;html=1;align=center;verticalAlign=middle;resizable=0;points=[];" parent="rnycu2j4dem3GArB-Dyt-40" vertex="1" connectable="0">
          <mxGeometry x="0.0001" y="-2" relative="1" as="geometry">
            <mxPoint as="offset" />
          </mxGeometry>
        </mxCell>
        <mxCell id="rnycu2j4dem3GArB-Dyt-135" value="1" style="edgeLabel;html=1;align=center;verticalAlign=middle;resizable=0;points=[];" parent="rnycu2j4dem3GArB-Dyt-40" vertex="1" connectable="0">
          <mxGeometry x="-0.819" relative="1" as="geometry">
            <mxPoint as="offset" />
          </mxGeometry>
        </mxCell>
        <mxCell id="rnycu2j4dem3GArB-Dyt-136" value="0..*" style="edgeLabel;html=1;align=center;verticalAlign=middle;resizable=0;points=[];" parent="rnycu2j4dem3GArB-Dyt-40" vertex="1" connectable="0">
          <mxGeometry x="0.8063" relative="1" as="geometry">
            <mxPoint as="offset" />
          </mxGeometry>
        </mxCell>
        <mxCell id="rnycu2j4dem3GArB-Dyt-45" value="Paslaugos patvirtinimas&lt;br&gt;/&lt;br&gt;atšaukimas" style="ellipse;whiteSpace=wrap;html=1;fillColor=#fff2cc;strokeColor=#d6b656;" parent="1" vertex="1">
          <mxGeometry x="630" y="290" width="120" height="70" as="geometry" />
        </mxCell>
        <mxCell id="rnycu2j4dem3GArB-Dyt-46" value="Paslaugos užimtumo&lt;br&gt;patikra" style="ellipse;whiteSpace=wrap;html=1;fillColor=#fff2cc;strokeColor=#d6b656;" parent="1" vertex="1">
          <mxGeometry x="800" y="220" width="110" height="50" as="geometry" />
        </mxCell>
        <mxCell id="rnycu2j4dem3GArB-Dyt-48" value="" style="endArrow=none;html=1;rounded=0;exitX=1;exitY=0;exitDx=0;exitDy=0;" parent="1" source="rnycu2j4dem3GArB-Dyt-46" target="rnycu2j4dem3GArB-Dyt-13" edge="1">
          <mxGeometry width="50" height="50" relative="1" as="geometry">
            <mxPoint x="900.0017014469362" y="185.39275364616333" as="sourcePoint" />
            <mxPoint x="510.88" y="270" as="targetPoint" />
          </mxGeometry>
        </mxCell>
        <mxCell id="rnycu2j4dem3GArB-Dyt-55" value="tikrina sodybos&lt;br&gt;užimtumą" style="edgeLabel;html=1;align=center;verticalAlign=middle;resizable=0;points=[];" parent="rnycu2j4dem3GArB-Dyt-48" vertex="1" connectable="0">
          <mxGeometry x="0.069" relative="1" as="geometry">
            <mxPoint x="-13" y="16" as="offset" />
          </mxGeometry>
        </mxCell>
        <mxCell id="rnycu2j4dem3GArB-Dyt-145" value="1" style="edgeLabel;html=1;align=center;verticalAlign=middle;resizable=0;points=[];" parent="rnycu2j4dem3GArB-Dyt-48" vertex="1" connectable="0">
          <mxGeometry x="0.8209" relative="1" as="geometry">
            <mxPoint as="offset" />
          </mxGeometry>
        </mxCell>
        <mxCell id="rnycu2j4dem3GArB-Dyt-146" value="1" style="edgeLabel;html=1;align=center;verticalAlign=middle;resizable=0;points=[];" parent="rnycu2j4dem3GArB-Dyt-48" vertex="1" connectable="0">
          <mxGeometry x="-0.8898" y="1" relative="1" as="geometry">
            <mxPoint as="offset" />
          </mxGeometry>
        </mxCell>
        <mxCell id="rnycu2j4dem3GArB-Dyt-49" value="" style="endArrow=none;html=1;rounded=0;exitX=0.979;exitY=0.63;exitDx=0;exitDy=0;exitPerimeter=0;" parent="1" source="rnycu2j4dem3GArB-Dyt-46" target="rnycu2j4dem3GArB-Dyt-2" edge="1">
          <mxGeometry width="50" height="50" relative="1" as="geometry">
            <mxPoint x="904.7216752089847" y="222.70000389270183" as="sourcePoint" />
            <mxPoint x="873.88" y="190" as="targetPoint" />
          </mxGeometry>
        </mxCell>
        <mxCell id="rnycu2j4dem3GArB-Dyt-57" value="tikrina savo&lt;br&gt;tvarkaraštį" style="edgeLabel;html=1;align=center;verticalAlign=middle;resizable=0;points=[];" parent="rnycu2j4dem3GArB-Dyt-49" vertex="1" connectable="0">
          <mxGeometry x="-0.0854" y="-1" relative="1" as="geometry">
            <mxPoint as="offset" />
          </mxGeometry>
        </mxCell>
        <mxCell id="rnycu2j4dem3GArB-Dyt-144" value="1" style="edgeLabel;html=1;align=center;verticalAlign=middle;resizable=0;points=[];" parent="rnycu2j4dem3GArB-Dyt-49" vertex="1" connectable="0">
          <mxGeometry x="0.8675" y="2" relative="1" as="geometry">
            <mxPoint as="offset" />
          </mxGeometry>
        </mxCell>
        <mxCell id="rnycu2j4dem3GArB-Dyt-147" value="1" style="edgeLabel;html=1;align=center;verticalAlign=middle;resizable=0;points=[];" parent="rnycu2j4dem3GArB-Dyt-49" vertex="1" connectable="0">
          <mxGeometry x="-0.7813" y="1" relative="1" as="geometry">
            <mxPoint as="offset" />
          </mxGeometry>
        </mxCell>
        <mxCell id="rnycu2j4dem3GArB-Dyt-50" value="" style="endArrow=none;html=1;rounded=0;exitX=1;exitY=0;exitDx=0;exitDy=0;entryX=0;entryY=0.5;entryDx=0;entryDy=0;" parent="1" source="rnycu2j4dem3GArB-Dyt-45" target="rnycu2j4dem3GArB-Dyt-46" edge="1">
          <mxGeometry width="50" height="50" relative="1" as="geometry">
            <mxPoint x="540" y="280" as="sourcePoint" />
            <mxPoint x="590" y="270" as="targetPoint" />
          </mxGeometry>
        </mxCell>
        <mxCell id="rnycu2j4dem3GArB-Dyt-52" value="" style="endArrow=none;html=1;rounded=0;entryX=0;entryY=0.5;entryDx=0;entryDy=0;exitX=1;exitY=0.5;exitDx=0;exitDy=0;" parent="1" source="rnycu2j4dem3GArB-Dyt-36" target="rnycu2j4dem3GArB-Dyt-45" edge="1">
          <mxGeometry width="50" height="50" relative="1" as="geometry">
            <mxPoint x="400" y="360" as="sourcePoint" />
            <mxPoint x="450" y="310" as="targetPoint" />
          </mxGeometry>
        </mxCell>
        <mxCell id="rnycu2j4dem3GArB-Dyt-59" value="Dekoracijų&amp;nbsp;užimtumo sandelyje patikra" style="ellipse;whiteSpace=wrap;html=1;fillColor=#fff2cc;strokeColor=#d6b656;" parent="1" vertex="1">
          <mxGeometry x="780" y="405" width="120" height="50" as="geometry" />
        </mxCell>
        <mxCell id="rnycu2j4dem3GArB-Dyt-63" value="" style="endArrow=none;html=1;rounded=0;exitX=1;exitY=0.5;exitDx=0;exitDy=0;" parent="1" source="rnycu2j4dem3GArB-Dyt-59" target="rnycu2j4dem3GArB-Dyt-6" edge="1">
          <mxGeometry width="50" height="50" relative="1" as="geometry">
            <mxPoint x="710" y="490" as="sourcePoint" />
            <mxPoint x="760" y="440" as="targetPoint" />
          </mxGeometry>
        </mxCell>
        <mxCell id="rnycu2j4dem3GArB-Dyt-64" value="tikrina" style="edgeLabel;html=1;align=center;verticalAlign=middle;resizable=0;points=[];" parent="rnycu2j4dem3GArB-Dyt-63" vertex="1" connectable="0">
          <mxGeometry x="-0.281" y="-1" relative="1" as="geometry">
            <mxPoint as="offset" />
          </mxGeometry>
        </mxCell>
        <mxCell id="rnycu2j4dem3GArB-Dyt-142" value="1" style="edgeLabel;html=1;align=center;verticalAlign=middle;resizable=0;points=[];" parent="rnycu2j4dem3GArB-Dyt-63" vertex="1" connectable="0">
          <mxGeometry x="-0.8625" y="1" relative="1" as="geometry">
            <mxPoint as="offset" />
          </mxGeometry>
        </mxCell>
        <mxCell id="rnycu2j4dem3GArB-Dyt-143" value="1" style="edgeLabel;html=1;align=center;verticalAlign=middle;resizable=0;points=[];" parent="rnycu2j4dem3GArB-Dyt-63" vertex="1" connectable="0">
          <mxGeometry x="0.8316" relative="1" as="geometry">
            <mxPoint as="offset" />
          </mxGeometry>
        </mxCell>
        <mxCell id="rnycu2j4dem3GArB-Dyt-65" value="" style="endArrow=none;html=1;rounded=0;entryX=1;entryY=0.5;entryDx=0;entryDy=0;exitX=0;exitY=0;exitDx=0;exitDy=0;" parent="1" source="rnycu2j4dem3GArB-Dyt-59" target="rnycu2j4dem3GArB-Dyt-45" edge="1">
          <mxGeometry width="50" height="50" relative="1" as="geometry">
            <mxPoint x="710" y="490" as="sourcePoint" />
            <mxPoint x="760" y="440" as="targetPoint" />
          </mxGeometry>
        </mxCell>
        <mxCell id="rnycu2j4dem3GArB-Dyt-67" value="Sandėlio DB tvarkymas" style="ellipse;whiteSpace=wrap;html=1;fillColor=#fff2cc;strokeColor=#d6b656;" parent="1" vertex="1">
          <mxGeometry x="827" y="585" width="120" height="50" as="geometry" />
        </mxCell>
        <mxCell id="rnycu2j4dem3GArB-Dyt-68" value="" style="endArrow=none;html=1;rounded=0;exitX=1;exitY=0;exitDx=0;exitDy=0;" parent="1" source="rnycu2j4dem3GArB-Dyt-67" target="rnycu2j4dem3GArB-Dyt-6" edge="1">
          <mxGeometry width="50" height="50" relative="1" as="geometry">
            <mxPoint x="890" y="570" as="sourcePoint" />
            <mxPoint x="930" y="480" as="targetPoint" />
          </mxGeometry>
        </mxCell>
        <mxCell id="rnycu2j4dem3GArB-Dyt-69" value="" style="endArrow=none;html=1;rounded=0;entryX=0.5;entryY=1;entryDx=0;entryDy=0;exitX=0.5;exitY=0;exitDx=0;exitDy=0;" parent="1" source="rnycu2j4dem3GArB-Dyt-67" target="rnycu2j4dem3GArB-Dyt-59" edge="1">
          <mxGeometry width="50" height="50" relative="1" as="geometry">
            <mxPoint x="750" y="610" as="sourcePoint" />
            <mxPoint x="762.5729561841868" y="532.6163956624221" as="targetPoint" />
          </mxGeometry>
        </mxCell>
        <mxCell id="rnycu2j4dem3GArB-Dyt-74" value="e-Apmokėjimas&lt;br&gt;už užsakymą" style="ellipse;whiteSpace=wrap;html=1;fillColor=#fff2cc;strokeColor=#d6b656;" parent="1" vertex="1">
          <mxGeometry x="40" y="610" width="120" height="55" as="geometry" />
        </mxCell>
        <mxCell id="rnycu2j4dem3GArB-Dyt-75" value="" style="endArrow=none;html=1;rounded=0;exitX=0;exitY=0;exitDx=0;exitDy=0;" parent="1" source="rnycu2j4dem3GArB-Dyt-74" edge="1">
          <mxGeometry width="50" height="50" relative="1" as="geometry">
            <mxPoint x="80" y="520" as="sourcePoint" />
            <mxPoint x="60" y="410" as="targetPoint" />
          </mxGeometry>
        </mxCell>
        <mxCell id="rnycu2j4dem3GArB-Dyt-87" value="apmoka" style="edgeLabel;html=1;align=center;verticalAlign=middle;resizable=0;points=[];" parent="rnycu2j4dem3GArB-Dyt-75" vertex="1" connectable="0">
          <mxGeometry x="-0.0131" y="-1" relative="1" as="geometry">
            <mxPoint as="offset" />
          </mxGeometry>
        </mxCell>
        <mxCell id="rnycu2j4dem3GArB-Dyt-133" value="1" style="edgeLabel;html=1;align=center;verticalAlign=middle;resizable=0;points=[];" parent="rnycu2j4dem3GArB-Dyt-75" vertex="1" connectable="0">
          <mxGeometry x="0.8639" relative="1" as="geometry">
            <mxPoint as="offset" />
          </mxGeometry>
        </mxCell>
        <mxCell id="rnycu2j4dem3GArB-Dyt-134" value="1" style="edgeLabel;html=1;align=center;verticalAlign=middle;resizable=0;points=[];" parent="rnycu2j4dem3GArB-Dyt-75" vertex="1" connectable="0">
          <mxGeometry x="-0.7737" y="-1" relative="1" as="geometry">
            <mxPoint as="offset" />
          </mxGeometry>
        </mxCell>
        <mxCell id="rnycu2j4dem3GArB-Dyt-77" value="" style="endArrow=none;html=1;rounded=0;entryX=1;entryY=1;entryDx=0;entryDy=0;" parent="1" source="rnycu2j4dem3GArB-Dyt-3" target="rnycu2j4dem3GArB-Dyt-74" edge="1">
          <mxGeometry width="50" height="50" relative="1" as="geometry">
            <mxPoint x="140" y="710" as="sourcePoint" />
            <mxPoint x="190" y="660" as="targetPoint" />
          </mxGeometry>
        </mxCell>
        <mxCell id="rnycu2j4dem3GArB-Dyt-80" value="Apmokėjimo patvirtinimas" style="ellipse;whiteSpace=wrap;html=1;fillColor=#fff2cc;strokeColor=#d6b656;" parent="1" vertex="1">
          <mxGeometry x="350" y="740" width="120" height="40" as="geometry" />
        </mxCell>
        <mxCell id="rnycu2j4dem3GArB-Dyt-81" value="" style="endArrow=none;html=1;rounded=0;entryX=0;entryY=1;entryDx=0;entryDy=0;exitX=0;exitY=0.5;exitDx=0;exitDy=0;" parent="1" source="rnycu2j4dem3GArB-Dyt-80" target="rnycu2j4dem3GArB-Dyt-74" edge="1">
          <mxGeometry width="50" height="50" relative="1" as="geometry">
            <mxPoint x="50" y="690" as="sourcePoint" />
            <mxPoint x="100" y="640" as="targetPoint" />
            <Array as="points">
              <mxPoint x="100" y="790" />
            </Array>
          </mxGeometry>
        </mxCell>
        <mxCell id="rnycu2j4dem3GArB-Dyt-84" value="" style="endArrow=none;html=1;rounded=0;entryX=0;entryY=0;entryDx=0;entryDy=0;" parent="1" source="rnycu2j4dem3GArB-Dyt-3" target="rnycu2j4dem3GArB-Dyt-80" edge="1">
          <mxGeometry width="50" height="50" relative="1" as="geometry">
            <mxPoint x="270" y="740" as="sourcePoint" />
            <mxPoint x="320" y="690" as="targetPoint" />
          </mxGeometry>
        </mxCell>
        <mxCell id="rnycu2j4dem3GArB-Dyt-89" value="patvirtina" style="edgeLabel;html=1;align=center;verticalAlign=middle;resizable=0;points=[];" parent="rnycu2j4dem3GArB-Dyt-84" vertex="1" connectable="0">
          <mxGeometry x="-0.138" y="1" relative="1" as="geometry">
            <mxPoint as="offset" />
          </mxGeometry>
        </mxCell>
        <mxCell id="rnycu2j4dem3GArB-Dyt-85" value="" style="endArrow=none;html=1;rounded=0;exitX=1;exitY=0.5;exitDx=0;exitDy=0;" parent="1" source="rnycu2j4dem3GArB-Dyt-80" target="rnycu2j4dem3GArB-Dyt-8" edge="1">
          <mxGeometry width="50" height="50" relative="1" as="geometry">
            <mxPoint x="500" y="830" as="sourcePoint" />
            <mxPoint x="550" y="780" as="targetPoint" />
          </mxGeometry>
        </mxCell>
        <mxCell id="rnycu2j4dem3GArB-Dyt-129" value="1..*" style="edgeLabel;html=1;align=center;verticalAlign=middle;resizable=0;points=[];" parent="rnycu2j4dem3GArB-Dyt-85" vertex="1" connectable="0">
          <mxGeometry x="0.7882" relative="1" as="geometry">
            <mxPoint as="offset" />
          </mxGeometry>
        </mxCell>
        <mxCell id="rnycu2j4dem3GArB-Dyt-131" value="1" style="edgeLabel;html=1;align=center;verticalAlign=middle;resizable=0;points=[];" parent="rnycu2j4dem3GArB-Dyt-85" vertex="1" connectable="0">
          <mxGeometry x="-0.7756" y="1" relative="1" as="geometry">
            <mxPoint as="offset" />
          </mxGeometry>
        </mxCell>
        <mxCell id="rnycu2j4dem3GArB-Dyt-90" value="Dekoracijų transportavimas" style="ellipse;whiteSpace=wrap;html=1;fillColor=#fff2cc;strokeColor=#d6b656;" parent="1" vertex="1">
          <mxGeometry x="615" y="530" width="120" height="50" as="geometry" />
        </mxCell>
        <mxCell id="rnycu2j4dem3GArB-Dyt-91" value="Šventės užsakymo vykdymas" style="ellipse;whiteSpace=wrap;html=1;fillColor=#fff2cc;strokeColor=#d6b656;" parent="1" vertex="1">
          <mxGeometry x="560" y="455" width="120" height="50" as="geometry" />
        </mxCell>
        <mxCell id="rnycu2j4dem3GArB-Dyt-92" value="Dekoracijų&lt;br&gt;pristatymo patvirtinimas" style="ellipse;whiteSpace=wrap;html=1;fillColor=#fff2cc;strokeColor=#d6b656;" parent="1" vertex="1">
          <mxGeometry x="290" y="580" width="120" height="50" as="geometry" />
        </mxCell>
        <mxCell id="rnycu2j4dem3GArB-Dyt-93" value="" style="endArrow=none;html=1;rounded=0;exitX=0;exitY=0;exitDx=0;exitDy=0;" parent="1" source="rnycu2j4dem3GArB-Dyt-92" edge="1">
          <mxGeometry width="50" height="50" relative="1" as="geometry">
            <mxPoint x="150" y="520" as="sourcePoint" />
            <mxPoint x="90" y="390" as="targetPoint" />
          </mxGeometry>
        </mxCell>
        <mxCell id="rnycu2j4dem3GArB-Dyt-137" value="1" style="edgeLabel;html=1;align=center;verticalAlign=middle;resizable=0;points=[];" parent="rnycu2j4dem3GArB-Dyt-93" vertex="1" connectable="0">
          <mxGeometry x="0.9018" y="1" relative="1" as="geometry">
            <mxPoint as="offset" />
          </mxGeometry>
        </mxCell>
        <mxCell id="rnycu2j4dem3GArB-Dyt-138" value="1..*" style="edgeLabel;html=1;align=center;verticalAlign=middle;resizable=0;points=[];" parent="rnycu2j4dem3GArB-Dyt-93" vertex="1" connectable="0">
          <mxGeometry x="-0.8914" y="-1" relative="1" as="geometry">
            <mxPoint as="offset" />
          </mxGeometry>
        </mxCell>
        <mxCell id="rnycu2j4dem3GArB-Dyt-94" value="" style="endArrow=none;html=1;rounded=0;exitX=1;exitY=0.5;exitDx=0;exitDy=0;" parent="1" source="rnycu2j4dem3GArB-Dyt-92" target="rnycu2j4dem3GArB-Dyt-9" edge="1">
          <mxGeometry width="50" height="50" relative="1" as="geometry">
            <mxPoint x="530" y="630" as="sourcePoint" />
            <mxPoint x="580" y="580" as="targetPoint" />
          </mxGeometry>
        </mxCell>
        <mxCell id="rnycu2j4dem3GArB-Dyt-139" value="1" style="edgeLabel;html=1;align=center;verticalAlign=middle;resizable=0;points=[];" parent="rnycu2j4dem3GArB-Dyt-94" vertex="1" connectable="0">
          <mxGeometry x="0.8885" relative="1" as="geometry">
            <mxPoint as="offset" />
          </mxGeometry>
        </mxCell>
        <mxCell id="rnycu2j4dem3GArB-Dyt-140" value="1..*" style="edgeLabel;html=1;align=center;verticalAlign=middle;resizable=0;points=[];" parent="rnycu2j4dem3GArB-Dyt-94" vertex="1" connectable="0">
          <mxGeometry x="-0.9445" y="1" relative="1" as="geometry">
            <mxPoint as="offset" />
          </mxGeometry>
        </mxCell>
        <mxCell id="rnycu2j4dem3GArB-Dyt-141" value="patvirtina" style="edgeLabel;html=1;align=center;verticalAlign=middle;resizable=0;points=[];" parent="rnycu2j4dem3GArB-Dyt-94" vertex="1" connectable="0">
          <mxGeometry x="-0.0597" y="-1" relative="1" as="geometry">
            <mxPoint as="offset" />
          </mxGeometry>
        </mxCell>
        <mxCell id="rnycu2j4dem3GArB-Dyt-95" value="" style="endArrow=none;html=1;rounded=0;entryX=0.5;entryY=1;entryDx=0;entryDy=0;" parent="1" source="rnycu2j4dem3GArB-Dyt-9" target="rnycu2j4dem3GArB-Dyt-90" edge="1">
          <mxGeometry width="50" height="50" relative="1" as="geometry">
            <mxPoint x="730" y="650" as="sourcePoint" />
            <mxPoint x="780" y="630" as="targetPoint" />
          </mxGeometry>
        </mxCell>
        <mxCell id="rnycu2j4dem3GArB-Dyt-96" value="" style="endArrow=none;html=1;rounded=0;exitX=1;exitY=1;exitDx=0;exitDy=0;entryX=0.5;entryY=0;entryDx=0;entryDy=0;" parent="1" source="rnycu2j4dem3GArB-Dyt-91" target="rnycu2j4dem3GArB-Dyt-90" edge="1">
          <mxGeometry width="50" height="50" relative="1" as="geometry">
            <mxPoint x="610" y="540" as="sourcePoint" />
            <mxPoint x="660" y="490" as="targetPoint" />
          </mxGeometry>
        </mxCell>
        <mxCell id="rnycu2j4dem3GArB-Dyt-97" value="" style="endArrow=none;html=1;rounded=0;entryX=0.319;entryY=0.977;entryDx=0;entryDy=0;entryPerimeter=0;exitX=1;exitY=0;exitDx=0;exitDy=0;" parent="1" source="rnycu2j4dem3GArB-Dyt-102" target="rnycu2j4dem3GArB-Dyt-45" edge="1">
          <mxGeometry width="50" height="50" relative="1" as="geometry">
            <mxPoint x="520" y="420" as="sourcePoint" />
            <mxPoint x="570" y="370" as="targetPoint" />
          </mxGeometry>
        </mxCell>
        <mxCell id="rnycu2j4dem3GArB-Dyt-98" value="" style="endArrow=none;html=1;rounded=0;exitX=0.5;exitY=0;exitDx=0;exitDy=0;entryX=0;entryY=1;entryDx=0;entryDy=0;" parent="1" source="rnycu2j4dem3GArB-Dyt-80" target="rnycu2j4dem3GArB-Dyt-91" edge="1">
          <mxGeometry width="50" height="50" relative="1" as="geometry">
            <mxPoint x="470" y="670" as="sourcePoint" />
            <mxPoint x="520" y="620" as="targetPoint" />
          </mxGeometry>
        </mxCell>
        <mxCell id="rnycu2j4dem3GArB-Dyt-99" value="" style="endArrow=none;html=1;rounded=0;entryX=0;entryY=0;entryDx=0;entryDy=0;exitX=1;exitY=1;exitDx=0;exitDy=0;" parent="1" source="rnycu2j4dem3GArB-Dyt-15" target="rnycu2j4dem3GArB-Dyt-36" edge="1">
          <mxGeometry width="50" height="50" relative="1" as="geometry">
            <mxPoint x="290" y="330" as="sourcePoint" />
            <mxPoint x="340" y="280" as="targetPoint" />
          </mxGeometry>
        </mxCell>
        <mxCell id="rnycu2j4dem3GArB-Dyt-102" value="Prašymo apmokėti išsiuntimas" style="ellipse;whiteSpace=wrap;html=1;fillColor=#fff2cc;strokeColor=#d6b656;" parent="1" vertex="1">
          <mxGeometry x="350" y="455" width="120" height="60" as="geometry" />
        </mxCell>
        <mxCell id="rnycu2j4dem3GArB-Dyt-104" value="" style="endArrow=none;html=1;rounded=0;entryX=0;entryY=0.5;entryDx=0;entryDy=0;" parent="1" source="rnycu2j4dem3GArB-Dyt-1" target="rnycu2j4dem3GArB-Dyt-102" edge="1">
          <mxGeometry width="50" height="50" relative="1" as="geometry">
            <mxPoint x="200" y="480" as="sourcePoint" />
            <mxPoint x="250" y="430" as="targetPoint" />
          </mxGeometry>
        </mxCell>
        <mxCell id="rnycu2j4dem3GArB-Dyt-105" value="peržiūri" style="edgeLabel;html=1;align=center;verticalAlign=middle;resizable=0;points=[];" parent="rnycu2j4dem3GArB-Dyt-104" vertex="1" connectable="0">
          <mxGeometry x="0.2163" y="-2" relative="1" as="geometry">
            <mxPoint as="offset" />
          </mxGeometry>
        </mxCell>
        <mxCell id="rnycu2j4dem3GArB-Dyt-107" value="Užpildo užsakymo formą&lt;br&gt;(sodyba, vedėjas,&lt;br&gt;dekoracijos)&lt;br&gt;&lt;font style=&quot;font-size: 10px;&quot; color=&quot;#9c9c9c&quot;&gt;&lt;i&gt;extention points&lt;br&gt;&lt;/i&gt;&lt;/font&gt;&lt;br&gt;sistemos lange" style="ellipse;whiteSpace=wrap;html=1;fillColor=#fff2cc;strokeColor=#d6b656;" parent="1" vertex="1">
          <mxGeometry x="670" y="10" width="150" height="180" as="geometry" />
        </mxCell>
        <mxCell id="rnycu2j4dem3GArB-Dyt-108" value="" style="endArrow=none;html=1;rounded=0;entryX=1;entryY=0.5;entryDx=0;entryDy=0;exitX=0;exitY=0.5;exitDx=0;exitDy=0;" parent="1" source="rnycu2j4dem3GArB-Dyt-107" target="rnycu2j4dem3GArB-Dyt-107" edge="1">
          <mxGeometry width="50" height="50" relative="1" as="geometry">
            <mxPoint x="730" y="150" as="sourcePoint" />
            <mxPoint x="780" y="100" as="targetPoint" />
          </mxGeometry>
        </mxCell>
        <mxCell id="rnycu2j4dem3GArB-Dyt-109" value="" style="endArrow=block;dashed=1;endFill=0;endSize=12;html=1;rounded=0;exitX=1;exitY=0;exitDx=0;exitDy=0;entryX=0;entryY=1;entryDx=0;entryDy=0;" parent="1" source="rnycu2j4dem3GArB-Dyt-36" target="rnycu2j4dem3GArB-Dyt-107" edge="1">
          <mxGeometry width="160" relative="1" as="geometry">
            <mxPoint x="530" y="250" as="sourcePoint" />
            <mxPoint x="690" y="250" as="targetPoint" />
          </mxGeometry>
        </mxCell>
        <mxCell id="rnycu2j4dem3GArB-Dyt-110" value="&amp;lt;&amp;lt;include&amp;gt;&amp;gt;" style="edgeLabel;html=1;align=center;verticalAlign=middle;resizable=0;points=[];rotation=-38;" parent="rnycu2j4dem3GArB-Dyt-109" vertex="1" connectable="0">
          <mxGeometry x="-0.1184" y="3" relative="1" as="geometry">
            <mxPoint x="10" y="-16" as="offset" />
          </mxGeometry>
        </mxCell>
        <mxCell id="rnycu2j4dem3GArB-Dyt-111" value="(sistemos lange)" style="edgeLabel;html=1;align=center;verticalAlign=middle;resizable=0;points=[];rotation=-39;" parent="rnycu2j4dem3GArB-Dyt-109" vertex="1" connectable="0">
          <mxGeometry x="-0.4017" y="1" relative="1" as="geometry">
            <mxPoint x="67" y="-37" as="offset" />
          </mxGeometry>
        </mxCell>
        <mxCell id="rnycu2j4dem3GArB-Dyt-112" value="Filtruoja e-katalogą pagal pasirinktus kainos ir lokacijos intervalus&lt;br&gt;&lt;font style=&quot;font-size: 10px;&quot; color=&quot;#9c9c9c&quot;&gt;&lt;i&gt;extention points&lt;br&gt;&lt;/i&gt;&lt;/font&gt;&lt;br&gt;sistemos lange" style="ellipse;whiteSpace=wrap;html=1;fillColor=#fff2cc;strokeColor=#d6b656;" parent="1" vertex="1">
          <mxGeometry x="390" y="-240" width="150" height="180" as="geometry" />
        </mxCell>
        <mxCell id="rnycu2j4dem3GArB-Dyt-113" value="" style="endArrow=none;html=1;rounded=0;exitX=0;exitY=0.5;exitDx=0;exitDy=0;entryX=1;entryY=0.5;entryDx=0;entryDy=0;" parent="1" source="rnycu2j4dem3GArB-Dyt-112" target="rnycu2j4dem3GArB-Dyt-112" edge="1">
          <mxGeometry width="50" height="50" relative="1" as="geometry">
            <mxPoint x="420" y="220" as="sourcePoint" />
            <mxPoint x="470" y="170" as="targetPoint" />
          </mxGeometry>
        </mxCell>
        <mxCell id="rnycu2j4dem3GArB-Dyt-114" value="" style="endArrow=block;dashed=1;endFill=0;endSize=12;html=1;rounded=0;entryX=0.5;entryY=0;entryDx=0;entryDy=0;exitX=0.5;exitY=1;exitDx=0;exitDy=0;" parent="1" source="rnycu2j4dem3GArB-Dyt-112" target="rnycu2j4dem3GArB-Dyt-15" edge="1">
          <mxGeometry width="160" relative="1" as="geometry">
            <mxPoint x="190" y="-20" as="sourcePoint" />
            <mxPoint x="350" y="-20" as="targetPoint" />
          </mxGeometry>
        </mxCell>
        <mxCell id="rnycu2j4dem3GArB-Dyt-115" value="&amp;lt;&amp;lt;extend&amp;gt;&amp;gt;" style="edgeLabel;html=1;align=center;verticalAlign=middle;resizable=0;points=[];rotation=-18;" parent="rnycu2j4dem3GArB-Dyt-114" vertex="1" connectable="0">
          <mxGeometry x="0.3167" y="1" relative="1" as="geometry">
            <mxPoint x="62" y="-33" as="offset" />
          </mxGeometry>
        </mxCell>
        <mxCell id="erv1JXf1suDFraWaGud9-1" value="" style="endArrow=none;html=1;rounded=0;exitX=1;exitY=1;exitDx=0;exitDy=0;entryX=0.5;entryY=0;entryDx=0;entryDy=0;" edge="1" parent="1" source="rnycu2j4dem3GArB-Dyt-30" target="rnycu2j4dem3GArB-Dyt-38">
          <mxGeometry width="50" height="50" relative="1" as="geometry">
            <mxPoint x="280" y="270" as="sourcePoint" />
            <mxPoint x="330" y="220" as="targetPoint" />
          </mxGeometry>
        </mxCell>
        <mxCell id="erv1JXf1suDFraWaGud9-2" value="" style="endArrow=none;html=1;rounded=0;entryX=0.5;entryY=1;entryDx=0;entryDy=0;exitX=0.5;exitY=0;exitDx=0;exitDy=0;" edge="1" parent="1" source="rnycu2j4dem3GArB-Dyt-102" target="rnycu2j4dem3GArB-Dyt-36">
          <mxGeometry width="50" height="50" relative="1" as="geometry">
            <mxPoint x="360" y="460" as="sourcePoint" />
            <mxPoint x="410" y="410" as="targetPoint" />
          </mxGeometry>
        </mxCell>
        <mxCell id="erv1JXf1suDFraWaGud9-3" value="" style="endArrow=none;html=1;rounded=0;entryX=1;entryY=1;entryDx=0;entryDy=0;exitX=0;exitY=0;exitDx=0;exitDy=0;" edge="1" parent="1" source="rnycu2j4dem3GArB-Dyt-91" target="rnycu2j4dem3GArB-Dyt-36">
          <mxGeometry width="50" height="50" relative="1" as="geometry">
            <mxPoint x="450" y="520" as="sourcePoint" />
            <mxPoint x="500" y="470" as="targetPoint" />
          </mxGeometry>
        </mxCell>
        <mxCell id="erv1JXf1suDFraWaGud9-4" value="" style="endArrow=none;html=1;rounded=0;exitX=1;exitY=0;exitDx=0;exitDy=0;entryX=0.5;entryY=1;entryDx=0;entryDy=0;" edge="1" parent="1" source="rnycu2j4dem3GArB-Dyt-91" target="rnycu2j4dem3GArB-Dyt-46">
          <mxGeometry width="50" height="50" relative="1" as="geometry">
            <mxPoint x="670" y="450" as="sourcePoint" />
            <mxPoint x="720" y="400" as="targetPoint" />
          </mxGeometry>
        </mxCell>
        <mxCell id="erv1JXf1suDFraWaGud9-5" value="" style="endArrow=none;html=1;rounded=0;exitX=1;exitY=0.5;exitDx=0;exitDy=0;entryX=0;entryY=0.5;entryDx=0;entryDy=0;" edge="1" parent="1" source="rnycu2j4dem3GArB-Dyt-91" target="rnycu2j4dem3GArB-Dyt-59">
          <mxGeometry width="50" height="50" relative="1" as="geometry">
            <mxPoint x="700" y="480" as="sourcePoint" />
            <mxPoint x="750" y="430" as="targetPoint" />
          </mxGeometry>
        </mxCell>
        <mxCell id="erv1JXf1suDFraWaGud9-6" value="" style="endArrow=none;html=1;rounded=0;entryX=0;entryY=1;entryDx=0;entryDy=0;exitX=1;exitY=0;exitDx=0;exitDy=0;" edge="1" parent="1" source="rnycu2j4dem3GArB-Dyt-74" target="rnycu2j4dem3GArB-Dyt-102">
          <mxGeometry width="50" height="50" relative="1" as="geometry">
            <mxPoint x="280" y="550" as="sourcePoint" />
            <mxPoint x="330" y="500" as="targetPoint" />
          </mxGeometry>
        </mxCell>
        <mxCell id="erv1JXf1suDFraWaGud9-7" value="" style="endArrow=none;html=1;rounded=0;exitX=1;exitY=0.5;exitDx=0;exitDy=0;entryX=0.5;entryY=0.5;entryDx=0;entryDy=0;entryPerimeter=0;" edge="1" parent="1" source="rnycu2j4dem3GArB-Dyt-74" target="rnycu2j4dem3GArB-Dyt-8">
          <mxGeometry width="50" height="50" relative="1" as="geometry">
            <mxPoint x="350" y="700" as="sourcePoint" />
            <mxPoint x="400" y="650" as="targetPoint" />
          </mxGeometry>
        </mxCell>
      </root>
    </mxGraphModel>
  </diagram>
</mxfile>
